<?xml version="1.0" encoding="utf-8"?>
<!-- Generator: Adobe Illustrator 22.0.0, SVG Export Plug-In . SVG Version: 6.00 Build 0)  -->
<svg version="1.1" id="Layer_1" xmlns="http://www.w3.org/2000/svg" xmlns:xlink="http://www.w3.org/1999/xlink" x="0px" y="0px"
	 viewBox="0 0 156.8 50" style="enable-background:new 0 0 156.8 50;" xml:space="preserve">
<style type="text/css">
	.st0{display:none;fill:#9E62C9;}
	.st1{display:none;fill:#7C549E;}
	.st2{display:none;fill:#FFFFFF;}
	.st3{display:none;fill:#919BAB;}
	.st4{display:none;fill:#3A4250;}
	.st5{fill:#FCD0AF;}
	.st6{fill:#FFFFFF;}
	.st7{fill:#FFF100;}
	.st8{fill:#874C30;}
	.st9{fill:#EC1C24;}
	.st10{fill:#2BC2E8;}
	.st11{fill:#0066B2;}
	.st12{fill:#FAB16A;}
</style>
<path class="st0" d="M23.6,0L0.4,8.3L4,38.9l19.6,10.9l19.7-10.9l3.5-30.6"/>
<path class="st1" d="M23.6,0v49.8l19.7-10.9l3.5-30.6"/>
<path class="st2" d="M29.2,28.2c-0.7,1.2-1.4,2.1-2.1,2.9c-0.9,1-1.8,1.6-3,2.1c-1.3,0.6-2.4,0.9-4.3,0.9s-3.5-0.6-4.5-1.2
	s-1.9-1.3-2.6-2.3c-0.5-0.7-0.9-1.3-1.2-2c-0.1-0.4-0.4-1.1-0.4-1.2c-0.2-0.8-0.4-1.3-0.4-3.2V14h2.7v10.2c0.1,0.7,0.3,2.1,0.4,2.7
	c0.1,0.4,0.1,0.5,0.3,1s0.4,0.9,0.8,1.3c0.5,0.6,1,1.1,1.7,1.5s1.8,0.9,3.2,0.9c2.3,0,3.9-1.1,5.3-2.3c0.6-0.6,1.3-1.8,1.9-2.9
	c0.1-0.3,0.4-0.9,0.4-0.9h4.2l-3.1-8.3l-5,9.6h-2.7V13.9h2.7v7l3.6-7h3l7.3,19.8h-2.9l-2.1-5.6L29.2,28.2L29.2,28.2z"/>
<path class="st3" d="M57,15.8c0,1.1,0.9,1.7,2.1,1.7c1.3,0,2.3-0.8,2.5-2.1l0.7-3.7h-1l-0.7,3.6c-0.2,0.8-0.7,1.2-1.5,1.2
	c-0.7,0-1.1-0.3-1.1-0.9v-0.3l0.7-3.6h-1L57,15.4V15.8z M62.5,17.4H66l0.2-0.9h-2.5l0.9-4.8h-1L62.5,17.4z M68,17.4h1l0.9-4.8h1.9
	l0.2-0.9h-4.7L67,12.6h1.8L68,17.4z M71.6,17.4h1l1.1-5.7h-1L71.6,17.4z M73.9,17.4h1l0.9-3.2c0.1-0.4,0.2-0.9,0.2-0.9
	s0.1,0.6,0.1,0.9l0.5,2.2h0.9l1.3-2.2c0.2-0.3,0.5-0.9,0.5-0.9s-0.1,0.5-0.2,0.9l-0.4,3.2h1l0.6-5.7h-1.1l-1.7,2.8
	c-0.2,0.3-0.4,0.8-0.4,0.8s0-0.5-0.1-0.8l-0.6-2.8h-1.1C75.3,11.7,73.9,17.4,73.9,17.4z M81.5,17.4l0.8-1.5h2l0.2,1.5h1l-0.9-5.7
	h-1.2l-3,5.7H81.5z M82.7,15.1l0.8-1.5c0.2-0.3,0.4-0.9,0.4-0.9s0,0.6,0.1,0.9l0.2,1.5H82.7z M87.3,17.4h1l0.9-4.8h1.9l0.2-0.9h-4.7
	l-0.2,0.9h1.8C88.2,12.6,87.3,17.4,87.3,17.4z M90.9,17.4h3.5l0.2-0.9h-2.5l0.3-1.5h1.9l0.2-0.9h-1.9l0.3-1.5h2.4l0.2-0.9H92
	C92,11.7,90.9,17.4,90.9,17.4z"/>
<path class="st4" d="M63.5,36.9h2.7l-5-14.2h-2.7l-5,14.2h2.7l1.2-3.6h5C62.4,33.3,63.5,36.9,63.5,36.9z M59.8,25.2
	c0,0,0.3,1.4,0.6,2.2l1.3,3.8H58l1.3-3.8C59.5,26.6,59.8,25.2,59.8,25.2z M68,36.9h2.6v-8.2c0-0.8-0.1-2.2-0.1-2.2s0.6,1.4,1.2,2.2
	l5.4,8.2h2.6V22.7H77v8.2c0,0.8,0.1,2.2,0.1,2.2s-0.6-1.4-1.2-2.2l-5.4-8.2H68V36.9z M82.2,29.8c0,4.5,3.2,7.4,7,7.4
	c2.6,0,4.1-1.5,4.1-1.5V37h2.2v-7.5H91v2.2h2.2v1.7c0,0-1.4,1.5-3.6,1.5c-2.7,0-4.8-2-4.8-5.1c0-2.7,1.7-4.9,4.9-4.9
	c2.3,0,3.8,1.4,3.8,1.4l1.3-1.9c0,0-1.8-1.8-5.3-1.8C85.3,22.5,82.2,25.7,82.2,29.8z M98.2,31.8c0,3.2,2.3,5.3,5.7,5.3
	c3.4,0,5.7-2.2,5.7-5.3v-9.1H107v9.1c0,1.9-1.3,3-3.2,3c-1.9,0-3.1-1.1-3.1-3v-9.1h-2.6L98.2,31.8C98.1,31.8,98.2,31.8,98.2,31.8z
	 M113,36.9h8.7v-2.2h-6.1v-12H113V36.9z M132.1,36.9h2.7l-5-14.2H127l-5,14.2h2.7l1.2-3.6h5L132.1,36.9L132.1,36.9z M128.4,25.2
	c0,0,0.3,1.4,0.6,2.2l1.3,3.8h-3.7l1.3-3.8C128.1,26.6,128.4,25.2,128.4,25.2L128.4,25.2z M136.6,36.9h2.6v-5.3h2.5l2.8,5.3h2.9
	l-2.9-5.3c-0.3-0.5-0.5-0.7-0.5-0.7c1.5-0.6,2.4-2.2,2.4-3.9c0-1.9-0.9-3.2-2.3-3.9c-0.6-0.3-1.3-0.4-2.9-0.4h-4.6V36.9z
	 M139.1,29.4V25h2c2,0,2.6,0.8,2.6,2.2c0,1.4-0.9,2.2-2.2,2.2H139.1L139.1,29.4z"/>
<g id="Layer_2">
	<g>
		<path class="st5" d="M87.5,13.8c0,0.1,0.1,0.1,0.1,0c0.9-1.1,2.8-1.9,3.9-1.5c1.6,0.5,2,3,0.8,4.3c-1,1.1-3,1.5-4.5,0L87.4,17
			c0,0,0.1,0.1,0.1,0.1c-1.2,0.3-3-0.8-3.4-1.3c-0.1-0.1-0.1-0.1-0.2,0c-0.9,1.1-0.7,2.9,1.3,2.8c0.2,1.4,1.6,1.8,2.6,1
			c0.4,0.4,0.8,0.5,1.3,0.5c0.1,0.4-0.2,1-0.8,1C88,22,87.4,22.7,86.3,23c-1.4,0.3-5.4-0.1-7-2.4c-0.3,0.3-2.2,0.6-3.5-1
			c-0.9-1.1-0.8-3.6,0.8-3.7c1-0.1,1.7,0.7,2.5,1.4c0.7,0.7,1.5,1.4,2.5,1.1c0.6-0.2,0.9-1.2,0.2-1.9c0.7-0.4,0.7-1.9-1.1-1.9
			c-0.8,0-1.3-0.7-1.6-1.2c0.3-0.4,0.7-0.8,1.1-1.3c0.7,0.9,2.9,0.3,4.1-0.8c0.2-0.2,0.5-0.4,0.7-0.7c0.4,0.2,0.6,0.5,0.7,0.6
			c0.2,0.1,0.1,0.1,0.1-0.1c0-0.2-0.2-0.6-0.4-1c0.1-0.1,0.2-0.3,0.4-0.4C86.2,10.5,87.1,12.3,87.5,13.8"/>
		<path class="st6" d="M87.4,25.8c0.8-0.2,1.6,0.4,2,1.2c0.4,0.8,0.3,1.6-0.1,1.8c-0.4,0.2-0.8,0-1.1-0.1
			C88.1,27.7,87.8,26.7,87.4,25.8"/>
		<path class="st6" d="M88.3,31.7c0.1-0.9,0.1-1.7,0-2.6c0.3,0.2,0.8,0.4,1.3,0c0,0.2,0.1,0.5,0.3,0.8c-0.3,0.4-0.2,1.1,0.3,1.5
			C89.8,31.8,88.8,31.8,88.3,31.7"/>
		<path class="st6" d="M91.6,31.1c-1,0.3-1.6-0.4-1.3-1c0.5,0.2,1.3,0.3,2.4-0.6C92.8,30.1,92.5,30.9,91.6,31.1"/>
		<path class="st6" d="M92.1,29.5c-0.8,0.6-1.7,0.4-1.9,0c-0.2-0.3-0.1-0.7,0-0.9c0.9,0.2,1.9-0.2,2.4-1
			C93.2,28.3,92.6,29.1,92.1,29.5"/>
		<path class="st6" d="M92,25.8c0.3,0.2,0.5,0.8,0.4,1.1c-0.2,0.6-1,1.5-2.2,1.2c0-0.3,0-0.6-0.2-1C90.9,27,91.7,26.4,92,25.8"/>
		<path class="st6" d="M91.3,24.4c1,0.7,0,2-1.5,2.3c-0.3-0.6-0.7-0.9-1.1-1.1c0.1-0.3,0.3-0.7,0.6-0.8c0.2-0.1,0.2-0.1,0-0.1
			c-0.2,0-0.8,0.2-1,0.8c-0.3-0.1-0.7-0.1-1,0c-0.1-0.1-0.1-0.3-0.2-0.5C88.5,24,90.6,23.9,91.3,24.4"/>
		<path class="st6" d="M73.1,26.6c0,0.9-0.3,1.3-1,1.3c0.1-0.5,0.1-1.1-0.1-1.5c-0.1-0.4-0.2-0.2-0.2,0c-0.1,3-1.9,4.4-2.8,4.2
			c-0.7-0.1-0.7-0.8-0.7-1.1c0.3-0.1,0.6-0.2,0.8-0.2v-0.4c-0.8,0-1.7,0.3-2.2,0.8l0.3,0.3c0.1-0.1,0.3-0.2,0.6-0.3
			c0,0.2,0.1,0.5,0.2,0.7c-0.8,0.6-2,0.3-2.5-0.1c-0.3-0.3-0.9-1-0.5-2.1c0.1-0.1,0.1-0.2-0.1-0.1c-0.4,0.3-0.5,0.7-0.5,1.1
			c-0.7-0.2-1.4-1.3-0.1-2.9c0.2-0.3,0.2-0.3-0.1-0.1c-0.5,0.3-0.8,0.6-1,1c-0.2-0.4-0.2-1.4,1-2.5c0.2-0.2,0.3-0.2,0-0.1
			c-0.2,0.1-0.5,0.2-0.7,0.4c0-0.6,0.6-1.5,1.9-2.2c2.2-1,4.2-0.3,5,0.3c0.3,0.2,0.4,0.1,0.2-0.2c-0.1-0.2-0.3-0.4-0.5-0.5
			c0.3-0.3,1-0.4,1.5,0C72.7,23.3,73.1,25.1,73.1,26.6"/>
		<path class="st7" d="M85.6,29.6c-1.5,0.3-2-2.9-0.5-3.1C86.5,26.3,86.8,29.4,85.6,29.6"/>
		<path d="M66.6,23.6c0.2,0,0.8-0.1,0.9-0.2c0.1,0,0.1-0.1,0-0.1c-0.1,0-0.7-0.4-1-0.4c-0.3,0-0.5,0.2-0.5,0.4
			C66.2,23.5,66.4,23.7,66.6,23.6 M68.1,24.5c-0.1,0-0.8-0.2-1.1-0.1c-0.3,0.1-0.4,0.3-0.3,0.5c0.1,0.2,0.4,0.3,0.6,0.2
			c0.2-0.1,0.8-0.5,0.9-0.5C68.2,24.6,68.2,24.5,68.1,24.5 M68.5,25.6c-0.1,0-0.8,0.2-1,0.5c-0.1,0.2-0.2,0.5,0,0.6
			c0.2,0.1,0.5,0.1,0.6-0.1C68.4,26.3,68.6,25.8,68.5,25.6C68.7,25.6,68.7,25.5,68.5,25.6 M85.6,29c-0.4-0.2-0.6-0.7-0.7-1.1
			c0-0.1-0.1-0.3-0.1,0.2c0,0.7,0.6,1.3,0.9,1.1C85.8,29.1,85.7,29.1,85.6,29 M96.4,42.2c1.6-1.3,3.5-4.9,3.3-6
			c0-0.2-0.9-0.7-1.2-0.9c0-0.6-0.3-2-2.1-2.4c-2-0.4-3.3,1.2-3.7,1.8c-0.4-0.3-1.1-0.2-1.6,0.3c-0.7-0.4-1.9-1.1-3.2-1.7
			c0.2-0.4,0.3-0.8,0.4-1.2c1,0.2,2,0,2.6-0.6c0.2,0,0.5,0,0.8,0c1.7-0.3,1.7-2,1.4-2.5c0.4-0.7,0.4-1.6-0.2-2
			c0.2-0.9-0.2-1.6-0.6-1.8c0.1-0.5,0-1-0.5-1.3c-0.7-0.5-3-0.8-4.9,0.5c-0.2-0.4-0.5-0.7-0.7-1c0.1,0,0.2,0,0.3,0
			c1.1-0.2,2-0.9,2.3-1.8c0.6-0.1,1.1-0.9,0.9-1.6c0.6-0.2,1.1-0.9,1-1.9c0.9-0.1,1.8-0.5,2.4-1.3c1.4-1.7,0.9-4.4-1.3-5.2
			c-1.3-0.4-3.2,0.5-3.9,1.3c-0.1-0.4-0.5-1.3-0.9-2.1c2.3-1.1,4.1-4.2,3.7-5.4c-0.4-1.3-3.5-0.6-5.3,0.7c-0.3-1.2-1.5-4-4.2-4
			c-4.1,0-8.1,5.6-8.6,10.6c-0.6,0.3-2.2,1.2-2.5,2.7C69.7,17.9,72,19.7,74,20c0.1,0.1,0.2,0.3,0.4,0.4c-0.6,0.2-0.7,0.8-0.4,1.3
			c-0.7,0.1-1.3,0.3-1.9,0.4c-1.1-0.9-2.2-0.6-2.6-0.1c-1.1-0.5-2.7-0.5-4.3,0.2c-1.1,0.5-2.6,1.7-2.3,3.4c-0.4,0.6-0.5,1.4,0.1,2.2
			c-0.2,1.1,0.8,2.1,1.5,2.1c0.1,0.3,0.3,0.6,0.6,0.9c1.1,0.9,2.7,0.6,3.2,0.2c0.2,0.2,0.4,0.3,0.6,0.3c1.2,0.1,2.5-1.2,3-2.7
			c0.7,0.1,1.2-0.3,1.5-1c0.6-0.2,1.8-0.3,3.1-0.4c-0.2,1.5-1.2,2.7-1.3,4.6c0,0.6,0,1.5,0.3,2.5c-0.2-0.1-0.5-0.2-0.6-0.2
			c0-0.1-0.2-0.8-0.8-1c-0.1,0-0.3-0.1-0.5,0c-1-1.5-2.5-1.5-3-1.1c-0.3-0.1-1-0.3-1.4-0.1c-0.5,0.2-1.6,2.9-1.6,3.3
			c0,0.1,0.1,0.2,0.4,0.3c-1.4,1.4-3,5.2-2.7,6.3c0.1,0.2,1,0.6,1.3,0.7c0.1,0.6,0.5,2,2.4,2.1c2.2,0.2,3.6-2,3.9-2.8
			c0.4,0,0.7-0.2,0.8-0.3c1.4,0.5,3,1.4,5.2,0.9c1.9-0.4,3.5-2.2,4-2.7c2,0.8,4.3,1.7,6.5,3.2c0.1,0.5,0.6,1.1,1,1.1
			c0.1,0,0.3,0.1,0.5,0.1c0.9,1.6,2.3,1.7,2.9,1.4c0.3,0.1,1,0.4,1.4,0.3c0.5-0.1,1.9-2.7,1.9-3.2C96.8,42.4,96.7,42.3,96.4,42.2
			 M87.4,25.8c0.8-0.2,1.6,0.4,2,1.2c0.4,0.8,0.3,1.6-0.1,1.8c-0.4,0.2-0.8,0-1.1-0.1C88.1,27.7,87.8,26.7,87.4,25.8 M88.3,31.7
			c0.1-0.9,0.1-1.7,0-2.6c0.3,0.2,0.8,0.4,1.3,0c0,0.2,0.1,0.5,0.3,0.8c-0.3,0.4-0.2,1.1,0.3,1.5C89.8,31.8,88.8,31.8,88.3,31.7
			 M91.6,31.1c-1,0.3-1.6-0.4-1.3-1c0.5,0.2,1.3,0.3,2.4-0.6C92.8,30.1,92.5,30.9,91.6,31.1 M92.1,29.5c-0.8,0.6-1.7,0.4-1.9,0
			c-0.2-0.3-0.1-0.7,0-0.9c0.9,0.2,1.9-0.2,2.4-1C93.2,28.3,92.6,29.1,92.1,29.5 M92,25.8c0.3,0.2,0.5,0.8,0.4,1.1
			c-0.2,0.6-1,1.5-2.2,1.2c0-0.3,0-0.6-0.2-1C90.9,27,91.7,26.4,92,25.8 M91.3,24.4c1,0.7,0,2-1.5,2.3c-0.3-0.6-0.7-0.9-1.1-1.1
			c0.1-0.3,0.3-0.7,0.6-0.8c0.2-0.1,0.2-0.1,0-0.1c-0.2,0-0.8,0.2-1,0.8c-0.3-0.1-0.7-0.1-1,0c-0.1-0.1-0.1-0.3-0.2-0.5
			C88.5,24,90.6,23.9,91.3,24.4 M87,26.4c-0.3,0-0.8-0.1-1-0.1c0,0,0,0,0,0c-0.3-0.9-1.1-2.2-1.5-2.7c0.3,0,0.7,0,1,0
			C86.1,24.4,86.6,25.4,87,26.4 M85.6,29.6c-1.5,0.3-2-2.9-0.5-3.1C86.5,26.3,86.8,29.4,85.6,29.6 M86.3,29.8
			c-0.1,0.5-0.4,0.8-0.9,0.8c-0.5,0-1.6-0.1-2.1-3.5c-0.2-1.5-0.8-3.1-1.5-4c0.7,0.3,1.3,0.4,1.9,0.5c0.6,0.6,1.3,1.9,1.6,2.5
			c-0.1,0-0.2,0-0.3,0c-1.8,0.2-1.5,4.2,0.7,3.9C86,30,86.1,29.9,86.3,29.8 M87.5,13.8c0,0.1,0.1,0.1,0.1,0c0.9-1.1,2.8-1.9,3.9-1.5
			c1.6,0.5,2,3,0.8,4.3c-1,1.1-3,1.5-4.5,0L87.4,17c0,0,0.1,0.1,0.1,0.1c-1.2,0.3-3-0.8-3.4-1.3c-0.1-0.1-0.1-0.1-0.2,0
			c-0.9,1.1-0.7,2.9,1.3,2.8c0.2,1.4,1.6,1.8,2.6,1c0.4,0.4,0.8,0.5,1.3,0.5c0.1,0.4-0.2,1-0.8,1C88,22,87.4,22.7,86.3,23
			c-1.4,0.3-5.4-0.1-7-2.4c-0.3,0.3-2.2,0.6-3.5-1c-0.9-1.1-0.8-3.6,0.8-3.7c1-0.1,1.7,0.7,2.5,1.4c0.7,0.7,1.5,1.4,2.5,1.1
			c0.6-0.2,0.9-1.2,0.2-1.9c0.7-0.4,0.7-1.9-1.1-1.9c-0.8,0-1.3-0.7-1.6-1.2c0.3-0.4,0.7-0.8,1.1-1.3c0.7,0.9,2.9,0.3,4.1-0.8
			c0.2-0.2,0.5-0.4,0.7-0.7c0.4,0.2,0.6,0.5,0.7,0.6c0.2,0.1,0.1,0.1,0.1-0.1c0-0.2-0.2-0.6-0.4-1c0.1-0.1,0.2-0.3,0.4-0.4
			C86.2,10.5,87.1,12.3,87.5,13.8 M81.3,17.8c-0.5,0.3-1.2-0.1-1.9-0.9c-0.6-0.6-1.2-1.2-1.9-1.4c0.3-0.5,0.8-1.1,1.2-1.7
			c0.3,0.5,1,1.2,1.9,1.1c1,0,1.4,0.8,0.5,1.4C81.3,16.4,82.1,17.3,81.3,17.8 M85.3,6.9c2.4-1.6,4.3-1.6,4.6-1.2
			c0.3,0.5-0.4,2.8-3.2,4.6c-0.2-0.4-0.4-0.8-0.5-1c0.8-0.8,1.5-1.6,2.3-2c0.3-0.2,0.3-0.2-0.1-0.2c-1,0.2-2.3,1.5-3.3,2.6
			c-0.4-0.4-0.9-0.7-1.5-0.6c-0.9,0.2-1.1,1.3-0.9,2c0,0.3,0,0.2,0.2,0.1c0.2-0.2,0.6-0.6,1.1-0.8c0.2,0,0.3,0,0.5,0l-0.1,0.1
			c-1.2,1.2-3,1.7-3.7,1.1C82.1,9.7,84,7.8,85.3,6.9 M84.7,6.6c-0.4,0.3-0.8,0.6-1.2,1c0-0.5,0.1-2.1,0.1-2.1c0-0.1,0.7,0.5,1,0.7
			C84.7,6.3,84.7,6.5,84.7,6.6 M84.2,5.1c-0.5-0.3-1.2-0.8-1.3-0.8c-0.1,0-0.5,2.9-0.5,3.1c0,0.1,0.7,0.3,1,0.4
			c-0.2,0.2-0.4,0.4-0.6,0.6c-1.9-1.4-1.8-4.5,0-4.8C83.4,3.9,83.9,4.5,84.2,5.1 M73.9,19.5c-2-0.6-3.4-2.2-3.1-3.9
			c0.2-1.1,1.1-1.7,1.8-2.1c0,0.1,0,0.2,0,0.3c0,0.9,0.2,0.6,0.3,0c0.7-4.1,3.5-10.5,8.2-11c0.5,0,1,0.1,1.4,0.3
			c-2,0.5-1.9,4.2,0.1,5.3c-2.6,2.6-5.1,5.9-5.8,6.8c-1.7-0.1-2.1,1.6-2,2.8C74.6,18.4,74.1,19.1,73.9,19.5 M75.3,20.6
			C75.4,20.6,75.5,20.6,75.3,20.6c-0.1-0.2-0.5-0.5-0.7-0.9c0.2-0.2,0.3-0.5,0.4-0.7c0.1,0.3,0.3,0.6,0.4,0.8c1.3,1.6,3,1.6,3.8,1.4
			c0.1,0.1,0.2,0.2,0.4,0.4c-1.3-0.1-3.2-0.2-4.9,0C74.1,21.2,74.4,20.7,75.3,20.6 M73.1,26.6c0,0.9-0.3,1.3-1,1.3
			c0.1-0.5,0.1-1.1-0.1-1.5c-0.1-0.4-0.2-0.2-0.2,0c-0.1,3-1.9,4.4-2.8,4.2c-0.7-0.1-0.7-0.8-0.7-1.1c0.3-0.1,0.6-0.2,0.8-0.2v-0.4
			c-0.8,0-1.7,0.3-2.2,0.8l0.3,0.3c0.1-0.1,0.3-0.2,0.6-0.3c0,0.2,0.1,0.5,0.2,0.7c-0.8,0.6-2,0.3-2.5-0.1c-0.3-0.3-0.9-1-0.5-2.1
			c0.1-0.1,0.1-0.2-0.1-0.1c-0.4,0.3-0.5,0.7-0.5,1.1c-0.7-0.2-1.4-1.3-0.1-2.9c0.2-0.3,0.2-0.3-0.1-0.1c-0.5,0.3-0.8,0.6-1,1
			c-0.2-0.4-0.2-1.4,1-2.5c0.2-0.2,0.3-0.2,0-0.1c-0.2,0.1-0.5,0.2-0.7,0.4c0-0.6,0.6-1.5,1.9-2.2c2.2-1,4.2-0.3,5,0.3
			c0.3,0.2,0.4,0.1,0.2-0.2c-0.1-0.2-0.3-0.4-0.5-0.5c0.3-0.3,1-0.4,1.5,0C72.7,23.3,73.1,25.1,73.1,26.6 M73.6,26.9
			c0.2-1.8-0.3-3.2-1.1-4.3c1.5-0.5,5.3-0.9,8.1-0.2c0,0,0.1,0,0.1,0.1c1.1,0.9,1.9,2.8,2.2,4.6c-0.7,0.5-3.3,1.9-3.4,1.9
			c-0.2,0-1.9-1.5-2.3-1.9c0,0,0-0.1,0-0.1c1,0,2.1,0,3,0.2l0.1-0.6C79.6,26.5,76.2,26.3,73.6,26.9 M65.8,41.3
			c-0.2-1.1,1.5-4.7,2.7-6.1c0,0,0.1-0.1,0-0.2c-0.1,0-0.4-0.2-0.4-0.2c0-0.4,0.8-2.4,1.2-2.6c0.1-0.1,0.6,0,0.8,0.1
			c-1,1.9-3,7.3-3.5,9.3C66.3,41.7,65.8,41.5,65.8,41.3 M68.9,44c-1.3-0.1-2-1.4-2-1.8c0.4-2.1,2.9-8.7,3.7-9.7
			c0.2-0.3,1.8-0.3,2.3,0.8c-0.6,0.4-1.4,1.4-1.8,3.7c-0.6,3,0.3,4.2,0.9,4.6C71.5,43.4,69.9,44,68.9,44 M78.5,41.7
			c-0.8,0.2-2.3,0.3-4.9-1.1c-0.2,0.3-0.7,0.5-1,0.4c-0.4-0.1-1.5-1-0.9-3.9c0.6-3,1.6-3.6,2.2-3.5c0.5,0.1,0.5,0.8,0.6,1
			c0.3,0.2,1,0.4,1.3,0.4c0.1,0.3,0.3,0.7,0.6,1c1,1.4,2.5,2.1,4.5,2.9c0.4,0.1,0.8,0.3,1.2,0.4C80.5,40.9,79.5,41.5,78.5,41.7
			 M90.4,43.3c-0.5-0.1-0.6-0.6-0.6-0.9c-2.6-2-6.3-3-8.8-4c-2.7-1.1-3.5-1.6-4.2-2.7c-0.8-1.1-1.1-2.6-0.9-3.9
			c0.1-1.6,0.8-2.6,1.2-4c0.4,0.4,2.2,1.8,2.3,1.9c0.1,0,2.9-1.5,3.6-1.9c0.5,2.9,1.4,3.3,2.5,3.3c0.8,0,1.6-0.8,1.4-2.4
			c0.1-0.6,0-1.2-0.3-1.8c0.2,0,0.6,0,0.8,0c0.8,2.3,0.7,4.8,0.1,6.3c-0.7-0.2-1.4-0.4-2.1-0.4c-0.2,0-0.1,0.1,0,0.1
			c2.3,0.9,4.3,1.8,6,2.9c0.1-0.2,0.6-0.7,1.1-0.5c0.6,0.2,0.8,1.9,0,4.5C91.6,42.8,91,43.4,90.4,43.3 M93.4,44.9
			c-0.3,0.3-1.8,0.1-2.3-1.1c0.5-0.4,1.2-1.4,1.8-3.9c0.7-2.9,0.5-4.1,0.2-4.7c0.6-1.4,2.1-1.8,3.1-1.7c1.3,0.2,1.9,1.6,1.8,2
			C97.4,37.6,94.2,44,93.4,44.9 M94.7,45.1c-0.2,0.1-0.6-0.1-0.8-0.2c1.2-1.7,3.7-7,4.4-8.9c0.2,0.1,0.7,0.3,0.7,0.5
			c0.1,1.1-2,4.5-3.3,5.8c0,0-0.1,0.1,0,0.2c0.1,0.1,0.4,0.2,0.4,0.3C96.1,43.1,95.1,45,94.7,45.1 M84.6,11.5
			c-0.7,0.2-1.1,1.1-0.7,2.7c0.5,1.6,1.4,2,2.1,1.8c0.8-0.2,1.1-1.1,0.6-2.7C86.1,11.6,85.3,11.2,84.6,11.5 M86.2,13
			c-0.1-0.1-0.2-0.1-0.3-0.1c-0.2,0.1-0.4,0.5-0.3,1.2c0.1,0.7,0.4,1,0.7,1c0.1,0,0.1,0,0.1-0.1c0,0.1-0.1,0.4-0.2,0.4
			c-0.3,0.1-0.9-0.4-1-1.4c-0.1-0.9,0-1.4,0.4-1.5C85.8,12.4,86.1,12.7,86.2,13 M86.1,14.2c-0.2,0.1-0.4-0.7-0.2-0.7
			C86.2,13.4,86.4,14.1,86.1,14.2 M85.8,12.3c-0.1,0-0.2,0-0.3,0c-0.2,0-0.8,0.5-0.5,1.8c0.2,1.1,0.7,1.5,1,1.6
			c-0.1,0-0.1,0-0.2,0.1c-0.7,0.2-1.5-0.7-1.7-1.7c-0.2-0.9-0.2-1.9,0.5-2.2C85.1,11.6,85.5,11.8,85.8,12.3 M76.6,17.3
			c-0.2,0.1-0.1,0.1,0,0.2c0.1,0,1,0.2,1.3,0.8c-0.4-0.1-0.7,0-0.8,0.1c-0.2,0.1,0,0.1,0.1,0.1c0.1,0,0.5,0,1,0.3
			c0.1,0.2,0.1,0.4,0.2,0.6c0.1,0.3,0.1,0.3,0.2,0c0.2-0.6,0-1-0.3-1.4C77.9,17.3,77.1,17.1,76.6,17.3"/>
		<path class="st8" d="M81.3,17.8c-0.5,0.3-1.2-0.1-1.9-0.9c-0.6-0.6-1.2-1.2-1.9-1.4c0.3-0.5,0.8-1.1,1.2-1.7
			c0.3,0.5,1,1.2,1.9,1.1c1,0,1.4,0.8,0.5,1.4C81.3,16.4,82.1,17.3,81.3,17.8"/>
		<path class="st9" d="M85.3,6.9c2.4-1.6,4.3-1.6,4.6-1.2c0.3,0.5-0.4,2.8-3.2,4.6c-0.2-0.4-0.4-0.8-0.5-1c0.8-0.8,1.5-1.6,2.3-2
			c0.3-0.2,0.3-0.2-0.1-0.2c-1,0.2-2.3,1.5-3.3,2.6c-0.4-0.4-0.9-0.7-1.5-0.6c-0.9,0.2-1.1,1.3-0.9,2c0,0.3,0,0.2,0.2,0.1
			c0.2-0.2,0.6-0.6,1.1-0.8c0.2,0,0.3,0,0.5,0l-0.1,0.1c-1.2,1.2-3,1.7-3.7,1.1C82.1,9.7,84,7.8,85.3,6.9"/>
		<path class="st6" d="M84.2,5.1c-0.5-0.3-1.2-0.8-1.3-0.8c-0.1,0-0.5,2.9-0.5,3.1c0,0.1,0.7,0.3,1,0.4c-0.2,0.2-0.4,0.4-0.6,0.6
			c-1.9-1.4-1.8-4.5,0-4.8C83.4,3.9,83.9,4.5,84.2,5.1"/>
		<path class="st9" d="M73.9,19.5c-2-0.6-3.4-2.2-3.1-3.9c0.2-1.1,1.1-1.7,1.8-2.1c0,0.1,0,0.2,0,0.3c0,0.9,0.2,0.6,0.3,0
			c0.7-4.1,3.5-10.5,8.2-11c0.5,0,1,0.1,1.4,0.3c-2,0.5-1.9,4.2,0.1,5.3c-2.6,2.6-5.1,5.9-5.8,6.8c-1.7-0.1-2.1,1.6-2,2.8
			C74.6,18.4,74.1,19.1,73.9,19.5"/>
		<path class="st10" d="M86.2,13c-0.1-0.1-0.2-0.1-0.3-0.1c-0.2,0.1-0.4,0.5-0.3,1.2c0.1,0.7,0.4,1,0.7,1c0.1,0,0.1,0,0.1-0.1
			c0,0.1-0.1,0.4-0.2,0.4c-0.3,0.1-0.9-0.4-1-1.4c-0.1-0.9,0-1.4,0.4-1.5C85.8,12.4,86.1,12.7,86.2,13"/>
		<path class="st6" d="M86.1,14.2c-0.2,0.1-0.4-0.7-0.2-0.7C86.2,13.4,86.4,14.1,86.1,14.2"/>
		<path class="st6" d="M85.8,12.3c-0.1,0-0.2,0-0.3,0c-0.2,0-0.8,0.5-0.5,1.8c0.2,1.1,0.7,1.5,1,1.6c-0.1,0-0.1,0-0.2,0.1
			c-0.7,0.2-1.5-0.7-1.7-1.7c-0.2-0.9-0.2-1.9,0.5-2.2C85.1,11.6,85.5,11.8,85.8,12.3"/>
		<path class="st6" d="M84.7,6.6c-0.4,0.3-0.8,0.6-1.2,1c0-0.5,0.1-2.1,0.1-2.1c0-0.1,0.7,0.5,1,0.7C84.7,6.3,84.7,6.5,84.7,6.6"/>
		<path class="st9" d="M87,26.4c-0.3,0-0.8-0.1-1-0.1c0,0,0,0,0,0c-0.3-0.9-1.1-2.2-1.5-2.7c0.3,0,0.7,0,1,0
			C86.1,24.4,86.6,25.4,87,26.4"/>
		<path class="st11" d="M86.3,29.8c-0.1,0.5-0.4,0.8-0.9,0.8c-0.5,0-1.6-0.1-2.1-3.5c-0.2-1.5-0.8-3.1-1.5-4
			c0.7,0.3,1.3,0.4,1.9,0.5c0.6,0.6,1.3,1.9,1.6,2.5c-0.1,0-0.2,0-0.3,0c-1.8,0.2-1.5,4.2,0.7,3.9C86,30,86.1,29.9,86.3,29.8"/>
		<path class="st8" d="M75.3,20.6C75.4,20.6,75.5,20.6,75.3,20.6c-0.1-0.2-0.5-0.5-0.7-0.9c0.2-0.2,0.3-0.5,0.4-0.7
			c0.1,0.3,0.3,0.6,0.4,0.8c1.3,1.6,3,1.6,3.8,1.4c0.1,0.1,0.2,0.2,0.4,0.4c-1.3-0.1-3.2-0.2-4.9,0C74.1,21.2,74.4,20.7,75.3,20.6"
			/>
		<path class="st9" d="M73.6,26.9c0.2-1.8-0.3-3.2-1.1-4.3c1.5-0.5,5.3-0.9,8.1-0.2c0,0,0.1,0,0.1,0.1c1.1,0.9,1.9,2.8,2.2,4.6
			c-0.7,0.5-3.3,1.9-3.4,1.9c-0.2,0-1.9-1.5-2.3-1.9c0,0,0-0.1,0-0.1c1,0,2.1,0,3,0.2l0.1-0.6C79.6,26.5,76.2,26.3,73.6,26.9"/>
		<path class="st12" d="M65.8,41.3c-0.2-1.1,1.5-4.7,2.7-6.1c0,0,0.1-0.1,0-0.2c-0.1,0-0.4-0.2-0.4-0.2c0-0.4,0.8-2.4,1.2-2.6
			c0.1-0.1,0.6,0,0.8,0.1c-1,1.9-3,7.3-3.5,9.3C66.3,41.7,65.8,41.5,65.8,41.3"/>
		<path class="st8" d="M68.9,44c-1.3-0.1-2-1.4-2-1.8c0.4-2.1,2.9-8.7,3.7-9.7c0.2-0.3,1.8-0.3,2.3,0.8c-0.6,0.4-1.4,1.4-1.8,3.7
			c-0.6,3,0.3,4.2,0.9,4.6C71.5,43.4,69.9,44,68.9,44"/>
		<path class="st11" d="M78.5,41.7c-0.8,0.2-2.3,0.3-4.9-1.1c-0.2,0.3-0.7,0.5-1,0.4c-0.4-0.1-1.5-1-0.9-3.9c0.6-3,1.6-3.6,2.2-3.5
			c0.5,0.1,0.5,0.8,0.6,1c0.3,0.2,1,0.4,1.3,0.4c0.1,0.3,0.3,0.7,0.6,1c1,1.4,2.5,2.1,4.5,2.9c0.4,0.1,0.8,0.3,1.2,0.4
			C80.5,40.9,79.5,41.5,78.5,41.7"/>
		<path class="st11" d="M90.4,43.3c-0.5-0.1-0.6-0.6-0.6-0.9c-2.6-2-6.3-3-8.8-4c-2.7-1.1-3.5-1.6-4.2-2.7c-0.8-1.1-1.1-2.6-0.9-3.9
			c0.1-1.6,0.8-2.6,1.2-4c0.4,0.4,2.2,1.8,2.3,1.9c0.1,0,2.9-1.5,3.6-1.9c0.5,2.9,1.4,3.3,2.5,3.3c0.8,0,1.6-0.8,1.4-2.4
			c0.1-0.6,0-1.2-0.3-1.8c0.2,0,0.6,0,0.8,0c0.8,2.3,0.7,4.8,0.1,6.3c-0.7-0.2-1.4-0.4-2.1-0.4c-0.2,0-0.1,0.1,0,0.1
			c2.3,0.9,4.3,1.8,6,2.9c0.1-0.2,0.6-0.7,1.1-0.5c0.6,0.2,0.8,1.9,0,4.5C91.6,42.8,91,43.4,90.4,43.3"/>
		<path class="st8" d="M93.4,44.9c-0.3,0.3-1.8,0.1-2.3-1.1c0.5-0.4,1.2-1.4,1.8-3.9c0.7-2.9,0.5-4.1,0.2-4.7
			c0.6-1.4,2.1-1.8,3.1-1.7c1.3,0.2,1.9,1.6,1.8,2C97.4,37.6,94.2,44,93.4,44.9"/>
		<path class="st12" d="M94.7,45.1c-0.2,0.1-0.6-0.1-0.8-0.2c1.2-1.7,3.7-7,4.4-8.9c0.2,0.1,0.7,0.3,0.7,0.5c0.1,1.1-2,4.5-3.3,5.8
			c0,0-0.1,0.1,0,0.2c0.1,0.1,0.4,0.2,0.4,0.3C96.1,43.1,95.1,45,94.7,45.1"/>
		<g>
			<path class="st9" d="M84.6,6.3L84.6,6.3C84.6,6.3,84.6,6.2,84.6,6.3C84.6,6.2,84.6,6.3,84.6,6.3z"/>
			<path class="st9" d="M84.1,4.9C84.1,4.9,84.1,4.9,84.1,4.9L84.1,4.9C84.1,4.9,84.1,4.9,84.1,4.9z"/>
			<path class="st9" d="M82.4,7.4c0,0.1,0.7,0.3,1,0.4l0.1-0.1c0-0.5,0.1-2.1,0.1-2.1c0-0.1,0.7,0.5,1,0.7c-0.1-0.3-0.3-0.7-0.4-1.1
				c-0.5-0.3-1.2-0.8-1.3-0.8C82.8,4.3,82.4,7.2,82.4,7.4z"/>
		</g>
	</g>
</g>
</svg>
